<svg width="400" height="300" xmlns="http://www.w3.org/2000/svg">
  <defs>
    <!-- Gradiente sutil para o fundo -->
    <radialGradient id="bgGradient" cx="50%" cy="50%">
      <stop offset="0%" style="stop-color:#f8fff8;stop-opacity:0.5"/>
      <stop offset="100%" style="stop-color:#e8f5e8;stop-opacity:0.2"/>
    </radialGradient>
    
    <!-- Padrão de círculos para simular ingredientes -->
    <pattern id="ingredientPattern" x="0" y="0" width="80" height="80" patternUnits="userSpaceOnUse">
      <!-- Tomate -->
      <circle cx="15" cy="20" r="6" fill="#ff6b6b" opacity="0.25"/>
      <!-- Azeitona -->
      <circle cx="60" cy="15" r="4" fill="#2d3436" opacity="0.2"/>
      <!-- Queijo -->
      <circle cx="45" cy="50" r="8" fill="#fdcb6e" opacity="0.22"/>
      <!-- Cogumelo -->
      <ellipse cx="20" cy="65" rx="7" ry="4" fill="#8b5a3c" opacity="0.18"/>
      <!-- Pimento -->
      <ellipse cx="65" cy="60" rx="5" ry="8" fill="#00b894" opacity="0.15"/>
    </pattern>
  </defs>
  
  <!-- Fundo base -->
  <rect width="100%" height="100%" fill="url(#bgGradient)"/>
  
  <!-- Padrão de ingredientes -->
  <rect width="100%" height="100%" fill="url(#ingredientPattern)"/>
  
  <!-- Formas de pizza sutis no fundo -->
  <g opacity="0.12">
    <!-- Pizza no canto superior direito -->
    <circle cx="320" cy="60" r="45" fill="#e67e22" opacity="0.4"/>
    <circle cx="320" cy="60" r="42" fill="#f39c12" opacity="0.5"/>
    <!-- Fatias da pizza -->
    <path d="M320,60 L365,60 A45,45 0 0,1 352,97 Z" fill="#ff6b6b" opacity="0.3"/>
    <path d="M320,60 L352,97 A45,45 0 0,1 320,105 Z" fill="#00b894" opacity="0.3"/>
    
    <!-- Pizza no canto inferior esquerdo -->
    <circle cx="80" cy="220" r="35" fill="#e67e22" opacity="0.35"/>
    <circle cx="80" cy="220" r="32" fill="#f39c12" opacity="0.45"/>
    <!-- Ingredientes na pizza -->
    <circle cx="70" cy="210" r="3" fill="#ff6b6b" opacity="0.5"/>
    <circle cx="90" cy="215" r="2" fill="#2d3436" opacity="0.4"/>
    <circle cx="85" cy="230" r="4" fill="#fdcb6e" opacity="0.5"/>
  </g>
  
  <!-- Elementos decorativos sutis -->
  <g opacity="0.08">
    <!-- Folhas de manjericão -->
    <path d="M150,120 Q155,115 160,120 Q155,125 150,120" fill="#00b894"/>
    <path d="M250,180 Q255,175 260,180 Q255,185 250,180" fill="#00b894"/>
    <path d="M180,250 Q185,245 190,250 Q185,255 180,250" fill="#00b894"/>
    
    <!-- Grãos de pimenta -->
    <circle cx="200" cy="80" r="1.5" fill="#2d3436"/>
    <circle cx="100" cy="160" r="1.5" fill="#2d3436"/>
    <circle cx="300" cy="200" r="1.5" fill="#2d3436"/>
  </g>
</svg>
